<svg id="visual" viewBox="0 0 900 600" width="900" height="600" xmlns="http://www.w3.org/2000/svg" xmlns:xlink="http://www.w3.org/1999/xlink" version="1.1"><path d="M0 115L82 163L164 247L245 97L327 97L409 193L491 175L573 247L655 139L736 73L818 169L900 193L900 0L818 0L736 0L655 0L573 0L491 0L409 0L327 0L245 0L164 0L82 0L0 0Z" fill="#ff9c57"></path><path d="M0 241L82 229L164 379L245 211L327 157L409 259L491 319L573 319L655 271L736 235L818 229L900 343L900 191L818 167L736 71L655 137L573 245L491 173L409 191L327 95L245 95L164 245L82 161L0 113Z" fill="#ffb580"></path><path d="M0 445L82 463L164 493L245 439L327 451L409 403L491 403L573 421L655 421L736 469L818 475L900 493L900 341L818 227L736 233L655 269L573 317L491 317L409 257L327 155L245 209L164 377L82 227L0 239Z" fill="#ffcdaa"></path><path d="M0 541L82 565L164 529L245 523L327 523L409 487L491 499L573 505L655 499L736 517L818 535L900 535L900 491L818 473L736 467L655 419L573 419L491 401L409 401L327 449L245 437L164 491L82 461L0 443Z" fill="#ffe6d4"></path><path d="M0 601L82 601L164 601L245 601L327 601L409 601L491 601L573 601L655 601L736 601L818 601L900 601L900 533L818 533L736 515L655 497L573 503L491 497L409 485L327 521L245 521L164 527L82 563L0 539Z" fill="#ffffff"></path></svg>