<svg id="visual" viewBox="0 0 960 540" width="960" height="540" xmlns="http://www.w3.org/2000/svg" xmlns:xlink="http://www.w3.org/1999/xlink" version="1.1"><path d="M0 82L87 60L175 39L262 33L349 77L436 33L524 87L611 39L698 71L785 55L873 71L960 60L960 0L873 0L785 0L698 0L611 0L524 0L436 0L349 0L262 0L175 0L87 0L0 0Z" fill="#ff9c57"></path><path d="M0 260L87 222L175 190L262 152L349 255L436 271L524 266L611 152L698 141L785 239L873 282L960 271L960 58L873 69L785 53L698 69L611 37L524 85L436 31L349 75L262 31L175 37L87 58L0 80Z" fill="#ffb580"></path><path d="M0 357L87 303L175 293L262 314L349 395L436 320L524 341L611 212L698 255L785 363L873 347L960 390L960 269L873 280L785 237L698 139L611 150L524 264L436 269L349 253L262 150L175 188L87 220L0 258Z" fill="#ffcdaa"></path><path d="M0 455L87 390L175 347L262 374L349 460L436 433L524 390L611 287L698 352L785 401L873 417L960 455L960 388L873 345L785 361L698 253L611 210L524 339L436 318L349 393L262 312L175 291L87 301L0 355Z" fill="#ffe6d4"></path><path d="M0 541L87 541L175 541L262 541L349 541L436 541L524 541L611 541L698 541L785 541L873 541L960 541L960 453L873 415L785 399L698 350L611 285L524 388L436 431L349 458L262 372L175 345L87 388L0 453Z" fill="#ffffff"></path></svg>