<?xml version="1.0" standalone="no"?><svg xmlns="http://www.w3.org/2000/svg" viewBox="0 0 1440 320"><path fill="#FFE6D4" fill-opacity="1" d="M0,224L8,234.7C16,245,32,267,48,229.3C64,192,80,96,96,85.3C112,75,128,149,144,170.7C160,192,176,160,192,138.7C208,117,224,107,240,101.3C256,96,272,96,288,117.3C304,139,320,181,336,170.7C352,160,368,96,384,112C400,128,416,224,432,272C448,320,464,320,480,277.3C496,235,512,149,528,144C544,139,560,213,576,256C592,299,608,309,624,298.7C640,288,656,256,672,213.3C688,171,704,117,720,80C736,43,752,21,768,26.7C784,32,800,64,816,85.3C832,107,848,117,864,106.7C880,96,896,64,912,69.3C928,75,944,117,960,144C976,171,992,181,1008,165.3C1024,149,1040,107,1056,90.7C1072,75,1088,85,1104,112C1120,139,1136,181,1152,192C1168,203,1184,181,1200,160C1216,139,1232,117,1248,112C1264,107,1280,117,1296,122.7C1312,128,1328,128,1344,128C1360,128,1376,128,1392,117.3C1408,107,1424,85,1432,74.7L1440,64L1440,0L1432,0C1424,0,1408,0,1392,0C1376,0,1360,0,1344,0C1328,0,1312,0,1296,0C1280,0,1264,0,1248,0C1232,0,1216,0,1200,0C1184,0,1168,0,1152,0C1136,0,1120,0,1104,0C1088,0,1072,0,1056,0C1040,0,1024,0,1008,0C992,0,976,0,960,0C944,0,928,0,912,0C896,0,880,0,864,0C848,0,832,0,816,0C800,0,784,0,768,0C752,0,736,0,720,0C704,0,688,0,672,0C656,0,640,0,624,0C608,0,592,0,576,0C560,0,544,0,528,0C512,0,496,0,480,0C464,0,448,0,432,0C416,0,400,0,384,0C368,0,352,0,336,0C320,0,304,0,288,0C272,0,256,0,240,0C224,0,208,0,192,0C176,0,160,0,144,0C128,0,112,0,96,0C80,0,64,0,48,0C32,0,16,0,8,0L0,0Z"></path></svg>